solid OpenSCAD_Model
  facet normal 0.57735 0.57735 0.57735
    outer loop
      vertex 0 0 35.3553
      vertex 35.3553 0 0
      vertex 0 35.3553 0
    endloop
  endfacet
  facet normal -0.57735 0.57735 0.57735
    outer loop
      vertex 0 0 35.3553
      vertex 0 35.3553 0
      vertex -35.3553 0 0
    endloop
  endfacet
  facet normal -0.57735 -0.57735 0.57735
    outer loop
      vertex 0 0 35.3553
      vertex -35.3553 0 0
      vertex 0 -35.3553 0
    endloop
  endfacet
  facet normal 0.57735 -0.57735 0.57735
    outer loop
      vertex 0 0 35.3553
      vertex 0 -35.3553 0
      vertex 35.3553 0 0
    endloop
  endfacet
  facet normal 0.57735 -0.57735 -0.57735
    outer loop
      vertex 0 0 -35.3553
      vertex 35.3553 0 0
      vertex 0 -35.3553 0
    endloop
  endfacet
  facet normal -0.57735 -0.57735 -0.57735
    outer loop
      vertex 0 0 -35.3553
      vertex 0 -35.3553 0
      vertex -35.3553 0 0
    endloop
  endfacet
  facet normal -0.57735 0.57735 -0.57735
    outer loop
      vertex 0 0 -35.3553
      vertex -35.3553 0 0
      vertex 0 35.3553 0
    endloop
  endfacet
  facet normal 0.57735 0.57735 -0.57735
    outer loop
      vertex 0 0 -35.3553
      vertex 0 35.3553 0
      vertex 35.3553 0 0
    endloop
  endfacet
endsolid OpenSCAD_Model
